<?xml version="1.0" encoding="utf-8"?>
<!-- Generator: Adobe Illustrator 21.0.2, SVG Export Plug-In . SVG Version: 6.00 Build 0)  -->
<svg version="1.1" id="první_varianta" xmlns="http://www.w3.org/2000/svg" xmlns:xlink="http://www.w3.org/1999/xlink" x="0px"
	 y="0px" viewBox="0 0 271 198.4" style="enable-background:new 0 0 271 198.4;" xml:space="preserve">
<style type="text/css">
	.st0{fill:#00A382;}
	.st1{fill:#F4A142;}
	.st2{fill:#FFFFFF;}
</style>
<g>
	<path class="st0" d="M35.1,160.2v9.9h-6.7V144h10.3c3.4,0,6,0.6,7.6,1.7s2.4,3,2.4,5.5c0,1.7-0.4,3.1-1.2,4.2s-2.1,1.9-3.8,2.4
		c0.9,0.2,1.7,0.7,2.5,1.4s1.5,1.9,2.2,3.4l3.6,7.4h-7.2l-3.2-6.5c-0.6-1.3-1.3-2.2-1.9-2.7c-0.7-0.5-1.5-0.7-2.6-0.7H35.1z
		 M37.9,155.6c1.4,0,2.4-0.3,3-0.8c0.6-0.5,0.9-1.4,0.9-2.6c0-1.2-0.3-2-0.9-2.5c-0.6-0.5-1.6-0.8-3-0.8h-2.8v6.7H37.9z"/>
	<path class="st0" d="M58.9,144h18.1v5.1H65.7v4.9h10.7v5.1H65.7v6h11.8v5.1H58.9V144z"/>
	<path class="st1" d="M86.4,144h6.7v9.9h9.9V144h6.7v26.1H103V159h-9.9v11.1h-6.7V144z"/>
	<path class="st1" d="M135.5,165.3H125l-1.7,4.7h-6.8l9.7-26.1h8l9.7,26.1h-6.8L135.5,165.3z M126.6,160.5h7.2l-3.6-10.4
		L126.6,160.5z"/>
	<path class="st1" d="M150.7,144h8.6l5.9,14l6-14h8.5v26.1h-6.4V151l-6,14.1h-4.3l-6-14.1v19.1h-6.4V144z"/>
	<path class="st1" d="M188,144h21.9v4.1L196,165h14.4v5.1h-22.7V166l14-16.9H188V144z"/>
	<path class="st1" d="M234.3,165.3h-10.5l-1.7,4.7h-6.8L225,144h8l9.7,26.1h-6.8L234.3,165.3z M225.4,160.5h7.2l-3.6-10.4
		L225.4,160.5z"/>
	<path class="st0" d="M208.4,93.4c-0.7-3.1-3.2-1.9-5.1-1.8c-1.1,0-2,0.3-1.6,2c2.8,11.8,1.7,23.5-1.7,35c-0.7,2.4,0.8,2.7,2.4,2.6
		c1.7,0,2.3-1.3,2.8-2.8c1.9-5.2,3.4-10.4,4-16.1C210.3,106.2,209.9,99.8,208.4,93.4z"/>
	<path class="st0" d="M197.3,97c-0.2-0.7,0.1-1.9-1.2-2c-1.5-0.1-5,3.6-4.8,5.1c1.8,10.8,0.7,21.4-2.4,31.9
		c-0.5,1.8,0.2,2.4,1.9,2.6c1.9,0.2,2.9-0.9,3.3-2.5c1.6-5.3,3.7-10.5,3.9-15.5C199.1,109.5,198.8,103.2,197.3,97z"/>
	<path class="st0" d="M163.3,56.7c-2.2,6.6-6.7,11.1-12.1,14.8c-5.6,3.9-11.6,7.2-18.2,9.1c-1.3,0.4-2.7,0.8-2.6,2.5
		c0.2,1.8,1.8,1.7,3.1,1.8c3,0.3,5.9-0.4,8.7-1.2c6.9-2,12-6.8,17.3-11.1c3-2.4,4.8-2.5,7.4-0.3c0.4,0.4,0.9,0.6,1.3,1
		c10.9,8.5,13.8,20.4,13.6,33.4c-0.1,6.8-1.2,13.5-3,20.2c-0.6,2.4,0.7,3.7,2.9,2.9c1.2-0.4,1.6-1.4,2-2.4
		C194.7,100.2,185.6,73.5,163.3,56.7z"/>
	<path class="st0" d="M210.3,64.9c-4.7-6.5-10.4-11.9-17.1-16.3c-1.5-1-2-1.2-2.8,0.9c-1.1,2.6-0.3,3.8,1.6,5.5
		c9.3,8.4,17.7,17.5,21,30.1c2.6,10,2.5,20,0.8,30.1c-0.2,1.1-1.2,2.3,0.7,3c1.4,0.5,2.6,0.3,3.5-1c0.4-0.6,0.6-1.4,0.8-2.1
		c1.5-5.2,2.3-10.5,2.3-15.9C221.5,86.5,217.6,75.1,210.3,64.9z"/>
	<path class="st0" d="M170.5,49.7c6.2,1,11.7-2.8,12.7-8.8c0.9-5.8-3-11.3-8.7-12.4c-5.9-1.1-11.4,2.7-12.4,8.4
		C161,43.5,164.4,48.7,170.5,49.7z"/>
	<path class="st1" d="M62.6,83.7c0.7,3.1,3.2,1.9,5.1,1.8c1.1,0,2-0.3,1.6-2c-2.8-11.8-1.7-23.5,1.7-35c0.7-2.4-0.8-2.7-2.4-2.6
		c-1.7,0-2.3,1.3-2.8,2.8c-1.9,5.2-3.4,10.4-4,16.1C60.8,71,61.1,77.4,62.6,83.7z"/>
	<path class="st1" d="M73.7,80.2c0.2,0.7-0.1,1.9,1.2,2c1.5,0.1,5-3.6,4.8-5.1c-1.8-10.8-0.7-21.4,2.4-31.9c0.5-1.8-0.2-2.4-1.9-2.6
		c-1.9-0.2-2.9,0.9-3.3,2.5c-1.6,5.3-3.7,10.5-3.9,15.5C71.9,67.6,72.2,73.9,73.7,80.2z"/>
	<path class="st1" d="M107.7,120.5c2.2-6.6,6.7-11.1,12.1-14.8c5.6-3.9,11.6-7.2,18.2-9.1c1.3-0.4,2.7-0.8,2.6-2.5
		c-0.2-1.8-1.8-1.7-3.1-1.8c-3-0.3-5.9,0.4-8.7,1.2c-6.9,2-12,6.8-17.3,11.1c-3,2.4-4.8,2.5-7.4,0.3c-0.4-0.4-0.9-0.6-1.3-1
		C91.8,95.5,89,83.6,89.1,70.6c0.1-6.8,1.2-13.5,3-20.2c0.6-2.4-0.7-3.7-2.9-2.9c-1.2,0.4-1.6,1.4-2,2.4
		C76.3,76.9,85.4,103.7,107.7,120.5z"/>
	<path class="st1" d="M60.6,112.2c4.6,6.5,10.4,11.9,17,16.4c1.5,1,2,1.2,2.8-0.9c1.1-2.6,0.3-3.8-1.5-5.5
		c-9.3-8.4-17.6-17.6-20.8-30.2c-2.5-10-2.3-20-0.6-30.1c0.2-1.1,1.2-2.3-0.7-3c-1.4-0.5-2.6-0.3-3.5,1c-0.4,0.6-0.6,1.4-0.8,2.1
		c-1.5,5.2-2.4,10.5-2.4,15.9C49.6,90.6,53.3,101.9,60.6,112.2z"/>
	<path class="st1" d="M113.7,71.3c-6.2-1-11.7,2.8-12.7,8.8c-0.9,5.8,3,11.3,8.7,12.4c5.9,1.1,11.4-2.7,12.4-8.4
		C123.2,77.5,119.8,72.3,113.7,71.3z"/>
</g>
</svg>
